<mxfile host="app.diagrams.net" modified="2020-11-20T02:01:52.122Z" agent="5.0 (Macintosh; Intel Mac OS X 11_0_1) AppleWebKit/537.36 (KHTML, like Gecko) Chrome/87.0.4280.67 Safari/537.36" etag="CUuGAztwjdk6YwiCf0Ec" version="13.10.0" type="github">
  <diagram id="uVBDujzfq1OSq2xYW2Sn" name="Page-1">
    <mxGraphModel dx="679" dy="393" grid="1" gridSize="10" guides="1" tooltips="1" connect="1" arrows="1" fold="1" page="1" pageScale="1" pageWidth="850" pageHeight="1100" math="0" shadow="0">
      <root>
        <mxCell id="0" />
        <mxCell id="1" parent="0" />
        <mxCell id="MxFv4PRn-Ff1plUCvEAZ-1" style="edgeStyle=orthogonalEdgeStyle;rounded=0;orthogonalLoop=1;jettySize=auto;html=1;" edge="1" parent="1">
          <mxGeometry relative="1" as="geometry">
            <mxPoint x="419" y="29" as="sourcePoint" />
            <mxPoint x="414" y="49" as="targetPoint" />
          </mxGeometry>
        </mxCell>
        <mxCell id="eV9TEMMrfFeuhhtjxHpH-2" value="start" style="rounded=1;whiteSpace=wrap;html=1;" parent="1" vertex="1">
          <mxGeometry x="370" width="90" height="30" as="geometry" />
        </mxCell>
        <mxCell id="eV9TEMMrfFeuhhtjxHpH-30" style="edgeStyle=orthogonalEdgeStyle;rounded=0;orthogonalLoop=1;jettySize=auto;html=1;" parent="1" source="eV9TEMMrfFeuhhtjxHpH-3" target="eV9TEMMrfFeuhhtjxHpH-4" edge="1">
          <mxGeometry relative="1" as="geometry" />
        </mxCell>
        <mxCell id="eV9TEMMrfFeuhhtjxHpH-3" value="get input for &lt;b&gt;a&lt;/b&gt;" style="shape=parallelogram;perimeter=parallelogramPerimeter;whiteSpace=wrap;html=1;fixedSize=1;" parent="1" vertex="1">
          <mxGeometry x="350" y="50" width="120" height="60" as="geometry" />
        </mxCell>
        <mxCell id="eV9TEMMrfFeuhhtjxHpH-28" style="edgeStyle=orthogonalEdgeStyle;rounded=0;orthogonalLoop=1;jettySize=auto;html=1;entryX=0.864;entryY=0.822;entryDx=0;entryDy=0;entryPerimeter=0;exitX=1;exitY=0.5;exitDx=0;exitDy=0;" parent="1" source="eV9TEMMrfFeuhhtjxHpH-4" target="eV9TEMMrfFeuhhtjxHpH-3" edge="1">
          <mxGeometry relative="1" as="geometry">
            <Array as="points">
              <mxPoint x="499" y="160" />
              <mxPoint x="499" y="100" />
              <mxPoint x="462" y="100" />
            </Array>
            <mxPoint x="449" y="170" as="sourcePoint" />
            <mxPoint x="462.03999999999996" y="74" as="targetPoint" />
          </mxGeometry>
        </mxCell>
        <mxCell id="MxFv4PRn-Ff1plUCvEAZ-12" style="edgeStyle=orthogonalEdgeStyle;rounded=0;orthogonalLoop=1;jettySize=auto;html=1;entryX=0.5;entryY=0;entryDx=0;entryDy=0;" edge="1" parent="1" source="eV9TEMMrfFeuhhtjxHpH-4" target="eV9TEMMrfFeuhhtjxHpH-5">
          <mxGeometry relative="1" as="geometry" />
        </mxCell>
        <mxCell id="eV9TEMMrfFeuhhtjxHpH-4" value="positive integer" style="rhombus;whiteSpace=wrap;html=1;" parent="1" vertex="1">
          <mxGeometry x="370" y="130" width="80" height="60" as="geometry" />
        </mxCell>
        <mxCell id="MxFv4PRn-Ff1plUCvEAZ-13" style="edgeStyle=orthogonalEdgeStyle;rounded=0;orthogonalLoop=1;jettySize=auto;html=1;entryX=0.5;entryY=0;entryDx=0;entryDy=0;" edge="1" parent="1" source="eV9TEMMrfFeuhhtjxHpH-5" target="eV9TEMMrfFeuhhtjxHpH-10">
          <mxGeometry relative="1" as="geometry" />
        </mxCell>
        <mxCell id="eV9TEMMrfFeuhhtjxHpH-5" value="get input for &lt;b&gt;b&lt;/b&gt;" style="shape=parallelogram;perimeter=parallelogramPerimeter;whiteSpace=wrap;html=1;fixedSize=1;" parent="1" vertex="1">
          <mxGeometry x="350" y="220" width="120" height="60" as="geometry" />
        </mxCell>
        <mxCell id="eV9TEMMrfFeuhhtjxHpH-36" style="edgeStyle=orthogonalEdgeStyle;rounded=0;orthogonalLoop=1;jettySize=auto;html=1;entryX=1;entryY=0.5;entryDx=0;entryDy=0;" parent="1" source="eV9TEMMrfFeuhhtjxHpH-6" edge="1">
          <mxGeometry relative="1" as="geometry">
            <Array as="points">
              <mxPoint x="508" y="540" />
              <mxPoint x="508" y="470" />
            </Array>
            <mxPoint x="468" y="470" as="targetPoint" />
          </mxGeometry>
        </mxCell>
        <mxCell id="MxFv4PRn-Ff1plUCvEAZ-22" style="edgeStyle=orthogonalEdgeStyle;rounded=0;orthogonalLoop=1;jettySize=auto;html=1;exitX=0.5;exitY=1;exitDx=0;exitDy=0;entryX=0.5;entryY=0;entryDx=0;entryDy=0;" edge="1" parent="1" source="eV9TEMMrfFeuhhtjxHpH-6" target="eV9TEMMrfFeuhhtjxHpH-7">
          <mxGeometry relative="1" as="geometry" />
        </mxCell>
        <mxCell id="eV9TEMMrfFeuhhtjxHpH-6" value="integer&lt;br&gt;and &amp;gt; 0" style="rhombus;whiteSpace=wrap;html=1;" parent="1" vertex="1">
          <mxGeometry x="368" y="500" width="80" height="80" as="geometry" />
        </mxCell>
        <mxCell id="MxFv4PRn-Ff1plUCvEAZ-23" style="edgeStyle=orthogonalEdgeStyle;rounded=0;orthogonalLoop=1;jettySize=auto;html=1;entryX=0.5;entryY=0;entryDx=0;entryDy=0;" edge="1" parent="1" source="eV9TEMMrfFeuhhtjxHpH-7" target="eV9TEMMrfFeuhhtjxHpH-14">
          <mxGeometry relative="1" as="geometry" />
        </mxCell>
        <mxCell id="eV9TEMMrfFeuhhtjxHpH-7" value="set &lt;b&gt;n&lt;/b&gt; to 1&lt;br&gt;set &lt;b&gt;counter&lt;/b&gt; to 0" style="rounded=0;whiteSpace=wrap;html=1;" parent="1" vertex="1">
          <mxGeometry x="348" y="591" width="120" height="60" as="geometry" />
        </mxCell>
        <mxCell id="eV9TEMMrfFeuhhtjxHpH-32" style="edgeStyle=orthogonalEdgeStyle;rounded=0;orthogonalLoop=1;jettySize=auto;html=1;" parent="1" source="eV9TEMMrfFeuhhtjxHpH-10" target="eV9TEMMrfFeuhhtjxHpH-5" edge="1">
          <mxGeometry relative="1" as="geometry">
            <mxPoint x="520" y="260" as="targetPoint" />
            <Array as="points">
              <mxPoint x="520" y="350" />
              <mxPoint x="520" y="240" />
            </Array>
          </mxGeometry>
        </mxCell>
        <mxCell id="MxFv4PRn-Ff1plUCvEAZ-14" style="edgeStyle=orthogonalEdgeStyle;rounded=0;orthogonalLoop=1;jettySize=auto;html=1;entryX=0.516;entryY=0;entryDx=0;entryDy=0;entryPerimeter=0;" edge="1" parent="1" source="eV9TEMMrfFeuhhtjxHpH-10" target="MxFv4PRn-Ff1plUCvEAZ-2">
          <mxGeometry relative="1" as="geometry" />
        </mxCell>
        <mxCell id="eV9TEMMrfFeuhhtjxHpH-10" value="integer" style="rhombus;whiteSpace=wrap;html=1;" parent="1" vertex="1">
          <mxGeometry x="370" y="310" width="80" height="80" as="geometry" />
        </mxCell>
        <mxCell id="eV9TEMMrfFeuhhtjxHpH-18" style="edgeStyle=orthogonalEdgeStyle;rounded=0;orthogonalLoop=1;jettySize=auto;html=1;entryX=0.5;entryY=0;entryDx=0;entryDy=0;" parent="1" source="eV9TEMMrfFeuhhtjxHpH-11" target="eV9TEMMrfFeuhhtjxHpH-17" edge="1">
          <mxGeometry relative="1" as="geometry" />
        </mxCell>
        <mxCell id="eV9TEMMrfFeuhhtjxHpH-11" value="&lt;meta charset=&quot;utf-8&quot;&gt;&lt;div class=&quot;page&quot; title=&quot;Page 1&quot; style=&quot;color: rgb(0, 0, 0); font-style: normal; font-weight: normal; letter-spacing: normal; text-indent: 0px; text-transform: none; word-spacing: 0px; text-decoration: none;&quot;&gt;&lt;div class=&quot;layoutArea&quot;&gt;&lt;div class=&quot;column&quot;&gt;&lt;ul style=&quot;list-style-type: none&quot;&gt;&lt;li&gt;&lt;p&gt;&lt;span style=&quot;font-size: 11pt ; font-family: &amp;quot;calibri&amp;quot;&quot;&gt;U&lt;/span&gt;&lt;span style=&quot;font-size: 7pt ; font-family: &amp;quot;calibri&amp;quot; ; vertical-align: -1pt&quot;&gt;n&lt;span class=&quot;Apple-converted-space&quot;&gt;&amp;nbsp;&lt;/span&gt;&lt;/span&gt;&lt;span style=&quot;font-size: 11pt ; font-family: &amp;quot;calibri&amp;quot;&quot;&gt;= an + b&lt;/span&gt;&lt;/p&gt;&lt;/li&gt;&lt;/ul&gt;&lt;/div&gt;&lt;/div&gt;&lt;/div&gt;" style="rounded=0;whiteSpace=wrap;html=1;" parent="1" vertex="1">
          <mxGeometry x="199" y="800" width="110" height="60" as="geometry" />
        </mxCell>
        <mxCell id="eV9TEMMrfFeuhhtjxHpH-15" style="edgeStyle=orthogonalEdgeStyle;rounded=0;orthogonalLoop=1;jettySize=auto;html=1;entryX=0.545;entryY=0;entryDx=0;entryDy=0;entryPerimeter=0;" parent="1" source="eV9TEMMrfFeuhhtjxHpH-14" edge="1" target="eV9TEMMrfFeuhhtjxHpH-11">
          <mxGeometry relative="1" as="geometry">
            <mxPoint x="259" y="790" as="targetPoint" />
            <Array as="points">
              <mxPoint x="259" y="710" />
            </Array>
          </mxGeometry>
        </mxCell>
        <mxCell id="eV9TEMMrfFeuhhtjxHpH-16" style="edgeStyle=orthogonalEdgeStyle;rounded=0;orthogonalLoop=1;jettySize=auto;html=1;entryX=0.5;entryY=0;entryDx=0;entryDy=0;" parent="1" source="eV9TEMMrfFeuhhtjxHpH-14" edge="1" target="eV9TEMMrfFeuhhtjxHpH-23">
          <mxGeometry relative="1" as="geometry">
            <mxPoint x="559" y="840" as="targetPoint" />
            <Array as="points">
              <mxPoint x="559" y="710" />
            </Array>
          </mxGeometry>
        </mxCell>
        <mxCell id="eV9TEMMrfFeuhhtjxHpH-14" value="&lt;b&gt;counter &amp;lt; number_of_terms&lt;/b&gt;" style="rhombus;whiteSpace=wrap;html=1;" parent="1" vertex="1">
          <mxGeometry x="308" y="670" width="200" height="80" as="geometry" />
        </mxCell>
        <mxCell id="MxFv4PRn-Ff1plUCvEAZ-24" style="edgeStyle=orthogonalEdgeStyle;rounded=0;orthogonalLoop=1;jettySize=auto;html=1;entryX=0.5;entryY=1;entryDx=0;entryDy=0;" edge="1" parent="1" source="eV9TEMMrfFeuhhtjxHpH-17" target="eV9TEMMrfFeuhhtjxHpH-14">
          <mxGeometry relative="1" as="geometry">
            <Array as="points">
              <mxPoint x="408" y="910" />
            </Array>
          </mxGeometry>
        </mxCell>
        <mxCell id="eV9TEMMrfFeuhhtjxHpH-17" value="counter ++&lt;br&gt;n++" style="rounded=0;whiteSpace=wrap;html=1;" parent="1" vertex="1">
          <mxGeometry x="194" y="880" width="120" height="60" as="geometry" />
        </mxCell>
        <mxCell id="eV9TEMMrfFeuhhtjxHpH-20" value="yes" style="text;html=1;strokeColor=none;fillColor=none;align=center;verticalAlign=middle;whiteSpace=wrap;rounded=0;" parent="1" vertex="1">
          <mxGeometry x="250" y="680" width="40" height="20" as="geometry" />
        </mxCell>
        <mxCell id="eV9TEMMrfFeuhhtjxHpH-21" value="no" style="text;html=1;strokeColor=none;fillColor=none;align=center;verticalAlign=middle;whiteSpace=wrap;rounded=0;" parent="1" vertex="1">
          <mxGeometry x="530" y="680" width="40" height="20" as="geometry" />
        </mxCell>
        <mxCell id="eV9TEMMrfFeuhhtjxHpH-24" style="edgeStyle=orthogonalEdgeStyle;rounded=0;orthogonalLoop=1;jettySize=auto;html=1;" parent="1" edge="1">
          <mxGeometry relative="1" as="geometry">
            <mxPoint x="460" y="80" as="targetPoint" />
            <Array as="points">
              <mxPoint x="640" y="80" />
            </Array>
            <mxPoint x="620" y="880" as="sourcePoint" />
          </mxGeometry>
        </mxCell>
        <mxCell id="MxFv4PRn-Ff1plUCvEAZ-8" style="edgeStyle=orthogonalEdgeStyle;rounded=0;orthogonalLoop=1;jettySize=auto;html=1;entryX=0.5;entryY=0;entryDx=0;entryDy=0;" edge="1" parent="1" source="eV9TEMMrfFeuhhtjxHpH-23">
          <mxGeometry relative="1" as="geometry">
            <mxPoint x="415" y="1050" as="targetPoint" />
            <Array as="points">
              <mxPoint x="550" y="1030" />
              <mxPoint x="415" y="1030" />
            </Array>
          </mxGeometry>
        </mxCell>
        <mxCell id="eV9TEMMrfFeuhhtjxHpH-23" value="another sequence" style="rounded=0;whiteSpace=wrap;html=1;" parent="1" vertex="1">
          <mxGeometry x="499" y="850" width="120" height="60" as="geometry" />
        </mxCell>
        <mxCell id="eV9TEMMrfFeuhhtjxHpH-25" value="yes" style="text;html=1;strokeColor=none;fillColor=none;align=center;verticalAlign=middle;whiteSpace=wrap;rounded=0;" parent="1" vertex="1">
          <mxGeometry x="640" y="820" width="40" height="20" as="geometry" />
        </mxCell>
        <mxCell id="eV9TEMMrfFeuhhtjxHpH-27" value="end" style="rounded=1;whiteSpace=wrap;html=1;" parent="1" vertex="1">
          <mxGeometry x="369" y="1050" width="90" height="30" as="geometry" />
        </mxCell>
        <mxCell id="eV9TEMMrfFeuhhtjxHpH-33" value="no" style="text;html=1;strokeColor=none;fillColor=none;align=center;verticalAlign=middle;whiteSpace=wrap;rounded=0;" parent="1" vertex="1">
          <mxGeometry x="460" y="330" width="40" height="20" as="geometry" />
        </mxCell>
        <mxCell id="eV9TEMMrfFeuhhtjxHpH-35" value="no" style="text;html=1;strokeColor=none;fillColor=none;align=center;verticalAlign=middle;whiteSpace=wrap;rounded=0;" parent="1" vertex="1">
          <mxGeometry x="468" y="520" width="40" height="20" as="geometry" />
        </mxCell>
        <mxCell id="MxFv4PRn-Ff1plUCvEAZ-18" style="edgeStyle=orthogonalEdgeStyle;rounded=0;orthogonalLoop=1;jettySize=auto;html=1;entryX=0.5;entryY=0;entryDx=0;entryDy=0;" edge="1" parent="1" source="MxFv4PRn-Ff1plUCvEAZ-2" target="eV9TEMMrfFeuhhtjxHpH-6">
          <mxGeometry relative="1" as="geometry" />
        </mxCell>
        <mxCell id="MxFv4PRn-Ff1plUCvEAZ-2" value="&lt;span&gt;get input for&amp;nbsp;&lt;/span&gt;&lt;b&gt;number_of_terms&lt;/b&gt;" style="shape=parallelogram;perimeter=parallelogramPerimeter;whiteSpace=wrap;html=1;fixedSize=1;" vertex="1" parent="1">
          <mxGeometry x="330" y="420" width="155" height="60" as="geometry" />
        </mxCell>
        <mxCell id="MxFv4PRn-Ff1plUCvEAZ-9" value="no" style="text;html=1;strokeColor=none;fillColor=none;align=center;verticalAlign=middle;whiteSpace=wrap;rounded=0;" vertex="1" parent="1">
          <mxGeometry x="450" y="140" width="40" height="20" as="geometry" />
        </mxCell>
        <mxCell id="MxFv4PRn-Ff1plUCvEAZ-11" value="yes" style="text;html=1;strokeColor=none;fillColor=none;align=center;verticalAlign=middle;whiteSpace=wrap;rounded=0;" vertex="1" parent="1">
          <mxGeometry x="400" y="190" width="40" height="20" as="geometry" />
        </mxCell>
        <mxCell id="MxFv4PRn-Ff1plUCvEAZ-15" value="yes" style="text;html=1;strokeColor=none;fillColor=none;align=center;verticalAlign=middle;whiteSpace=wrap;rounded=0;" vertex="1" parent="1">
          <mxGeometry x="400" y="390" width="40" height="20" as="geometry" />
        </mxCell>
      </root>
    </mxGraphModel>
  </diagram>
</mxfile>
